<svg width="200" height="200" viewBox="0 0 200 200" stroke="black" fill="none" stroke-width="2.5" stroke-linecap="round" stroke-linejoin="round"  xmlns="http://www.w3.org/2000/svg">
    <path fill="#e84f7f" stroke="none" transform="translate(-10,-10)" d="m111.148 75.845 1.486 3.167 1.27-3.259c5.694-14.606 12.246-23.46 18.441-28.098 6.157-4.609 11.893-5.028 16.306-2.984 8.904 4.125 13.922 19.282 4.771 36.13l-45.18 75.123-59.83-65.305c-6.355-9.584-7.116-18.587-4.502-25.868 2.636-7.345 8.781-13.144 16.591-16.095 15.505-5.857 37.688-.441 50.647 27.19Z"/><path d="m111.148 75.845 1.486 3.167 1.27-3.259c5.694-14.606 12.246-23.46 18.441-28.098 6.157-4.609 11.893-5.028 16.306-2.984 8.904 4.125 13.922 19.282 4.771 36.13l-45.18 75.123-59.83-65.305c-6.355-9.584-7.116-18.587-4.502-25.868 2.636-7.345 8.781-13.144 16.591-16.095 15.505-5.857 37.688-.441 50.647 27.19Z"/>
</svg>