
<svg width="600" height="600" viewBox="0 0 600 600" 
     xmlns="http://www.w3.org/2000/svg" fill="black">
    <path d="M 267,8 266,9 262,9 261,10 260,10 259,9 240,9 239,10 237,10 236,11 234,11 233,12 232,12 231,13 230,13 229,14 230,14 231,15 234,15 235,16 236,16 237,15 238,16 241,16 242,17 240,19 239,19 238,20 237,20 235,22 234,22 232,24 231,24 229,26 227,26 223,30 222,30 216,36 215,36 215,37 206,46 206,47 199,54 199,55 193,61 193,62 191,64 191,65 188,68 188,69 187,70 187,71 183,75 183,76 181,78 181,79 180,80 180,82 179,83 179,96 177,98 176,98 172,102 171,102 162,111 161,111 159,113 159,114 157,116 156,116 156,117 150,123 150,124 145,129 145,130 142,133 142,134 140,136 140,137 138,139 138,140 135,143 135,144 134,145 134,146 133,147 133,148 132,149 132,150 131,151 131,152 129,154 129,155 128,156 128,157 127,158 127,160 126,161 126,162 125,163 125,164 124,165 124,166 123,167 123,168 122,169 122,171 121,172 121,173 120,174 120,175 119,176 119,178 118,179 118,181 117,182 117,184 116,185 116,187 115,188 115,189 114,190 114,192 113,193 113,195 112,196 112,199 111,200 111,202 110,203 110,206 109,207 109,211 108,212 108,216 107,217 107,222 106,223 106,226 105,227 105,234 104,235 104,243 103,244 103,258 104,259 104,264 103,265 103,267 104,268 104,276 105,277 105,283 106,284 106,293 107,294 107,298 108,299 108,303 109,304 109,308 110,309 110,312 111,313 111,316 112,317 112,320 113,321 113,323 114,324 114,328 115,329 115,331 116,332 116,335 117,336 117,339 118,340 118,342 119,343 119,347 120,348 120,350 121,351 121,353 122,354 122,356 123,357 123,360 124,361 124,363 125,364 125,367 126,368 126,370 127,371 127,372 128,373 128,376 129,377 129,378 130,379 130,381 131,382 131,384 132,385 132,387 133,388 133,389 134,390 134,391 135,392 135,394 136,395 136,396 137,397 137,398 138,399 138,400 139,401 139,402 140,403 140,404 141,405 141,406 142,407 142,408 143,409 143,410 144,411 144,412 146,414 146,415 147,416 147,417 149,419 149,420 150,421 150,422 151,423 151,424 152,425 152,426 153,427 153,428 155,430 155,431 156,432 156,433 157,434 157,435 159,437 159,438 161,440 161,441 162,442 162,443 163,444 163,446 164,447 164,448 165,449 165,451 166,452 166,454 167,455 167,457 168,458 168,460 169,461 169,463 170,464 170,466 171,467 171,468 172,469 172,471 173,472 173,474 174,475 174,477 175,478 175,479 176,480 176,482 177,483 177,484 178,485 178,486 179,487 179,489 180,490 180,491 181,492 181,493 182,494 182,496 183,497 183,498 184,499 184,500 185,501 185,502 186,503 186,505 187,506 187,507 188,508 188,510 189,511 189,512 190,513 190,514 191,515 191,516 192,517 192,518 193,519 193,520 194,521 194,522 195,523 195,524 196,525 196,526 197,527 197,528 199,530 199,531 200,532 200,533 201,534 201,535 203,537 203,538 204,539 204,540 206,542 206,543 209,546 209,547 212,550 212,551 214,553 214,554 219,559 219,560 220,560 222,562 222,563 226,567 227,567 232,572 233,572 237,576 238,576 240,578 241,578 242,579 243,579 244,580 245,580 247,582 249,582 250,583 252,583 253,584 256,584 257,585 261,585 262,586 265,586 266,587 290,587 291,586 296,586 297,585 301,585 302,584 306,584 307,583 309,583 310,582 312,582 313,581 316,581 317,580 320,580 321,579 323,579 324,578 325,578 326,577 328,577 329,576 331,576 332,575 335,575 336,574 338,574 339,573 341,573 342,572 343,572 344,571 347,571 348,570 349,570 350,569 352,569 353,568 354,568 355,567 357,567 358,566 359,566 360,565 361,565 362,564 364,564 365,563 366,563 367,562 368,562 369,561 370,561 371,560 372,560 373,559 374,559 376,557 377,557 378,556 379,556 381,554 382,554 384,552 385,552 387,550 388,550 392,546 393,546 396,543 397,543 400,540 401,540 403,538 404,538 407,535 408,535 415,528 416,528 421,523 422,523 434,511 434,510 441,503 441,502 444,499 444,498 447,495 447,494 449,492 449,491 451,489 451,488 454,485 454,484 457,481 457,480 458,479 458,478 460,476 460,475 461,474 461,473 462,472 462,471 463,470 463,469 464,468 464,467 465,466 465,465 466,464 466,463 467,462 467,461 468,460 468,459 469,458 469,457 470,456 470,455 471,454 471,453 472,452 472,451 473,450 473,448 474,447 474,445 475,444 475,443 476,442 476,441 477,440 477,438 478,437 478,436 479,435 479,434 480,433 480,432 481,431 481,429 482,428 482,427 483,426 483,425 484,424 484,421 486,419 486,417 487,416 487,415 488,414 488,412 489,411 489,410 490,409 490,407 491,406 491,404 492,403 492,401 493,400 493,398 494,397 494,395 495,394 495,390 496,389 496,387 497,386 497,383 498,382 498,379 499,378 499,373 500,372 500,364 501,363 501,350 502,349 502,335 503,334 503,307 502,306 503,305 502,304 502,284 501,283 501,278 500,277 500,272 499,271 499,267 498,266 498,259 497,258 497,254 496,253 496,249 495,248 495,244 494,243 494,240 493,239 493,236 492,235 492,233 491,232 491,229 490,228 490,226 489,225 489,223 488,222 488,220 487,219 487,217 486,216 486,215 485,214 485,213 484,212 484,211 483,210 483,208 481,206 481,204 480,203 480,202 479,201 479,199 478,198 478,196 477,195 477,193 476,192 476,191 475,190 475,189 474,188 474,186 473,185 473,184 472,183 472,182 471,181 471,180 470,179 470,177 469,176 469,175 468,174 468,173 467,172 467,171 466,170 466,167 464,165 464,164 463,163 463,161 461,159 461,158 459,156 459,155 458,154 458,153 456,151 456,150 455,149 456,148 458,148 459,149 461,149 462,150 464,150 465,151 467,151 468,152 469,152 470,153 471,153 473,155 475,155 476,156 478,156 479,157 485,157 486,158 488,158 490,160 491,160 494,163 494,164 495,165 495,166 498,169 498,170 503,175 503,176 517,190 517,191 518,192 518,193 519,193 520,194 520,195 521,196 521,197 522,198 522,199 523,200 523,204 524,205 524,207 523,208 524,209 524,211 523,212 523,213 524,213 524,211 525,210 525,208 526,207 526,206 527,205 527,204 526,203 526,199 525,198 525,195 526,194 526,185 525,184 525,177 524,176 524,175 523,174 523,173 522,172 522,171 518,167 517,167 516,166 515,166 513,164 512,164 509,161 509,160 506,157 506,156 504,154 504,152 503,151 503,150 502,149 502,147 501,146 501,144 500,143 500,142 499,141 499,140 498,139 498,138 497,137 496,137 493,134 492,134 490,132 489,132 485,128 485,127 483,125 483,124 479,120 479,119 478,119 476,117 476,116 475,116 471,112 470,112 467,109 466,109 465,108 465,107 464,107 463,106 462,106 461,105 460,105 458,103 456,103 455,102 454,102 453,101 451,101 450,100 447,100 446,99 444,99 443,98 441,98 440,97 439,97 438,96 435,96 433,94 432,95 429,92 429,91 428,90 428,88 427,87 427,86 426,85 426,83 424,81 424,80 423,79 423,78 422,77 422,76 421,75 421,74 419,72 419,71 412,64 412,63 411,63 410,62 409,62 408,61 407,61 406,60 405,60 404,59 403,59 402,58 400,58 399,57 397,57 396,56 392,56 391,55 389,55 388,54 383,54 382,53 381,54 379,54 378,53 377,53 376,52 374,52 371,49 370,49 368,47 366,47 365,46 361,46 360,47 359,46 357,48 356,48 354,50 353,50 352,51 352,52 349,55 349,56 348,57 347,57 346,58 344,56 342,56 341,55 342,54 341,53 341,50 340,49 340,46 339,45 339,44 340,43 339,42 339,39 338,38 338,31 339,30 339,29 338,28 338,26 337,25 337,24 335,22 334,22 333,21 332,21 331,20 330,20 331,21 331,24 330,25 330,26 329,27 329,28 327,30 326,30 326,31 325,32 324,31 324,29 325,28 324,27 324,23 323,22 323,21 318,16 317,16 316,15 315,16 313,16 312,15 308,15 307,14 306,15 305,14 300,14 299,13 296,13 295,12 294,12 293,11 289,11 288,10 283,10 282,9 268,9 Z" />
</svg>
